<mxfile host="app.diagrams.net" agent="Mozilla/5.0 (Windows NT 10.0; Win64; x64) AppleWebKit/537.36 (KHTML, like Gecko) Chrome/131.0.0.0 Safari/537.36" version="25.0.3">
  <diagram name="페이지-1" id="0_OPbUta_jnCviQzeamS">
    <mxGraphModel>
      <root>
        <mxCell id="0" />
        <mxCell id="1" parent="0" />
        <mxCell id="2" value="Start" style="ellipse;aspect=fixed;strokeWidth=2;whiteSpace=wrap;" vertex="1" parent="1">
          <mxGeometry x="562" y="8" width="51" height="51" as="geometry" />
        </mxCell>
        <mxCell id="3" value="Initialize" style="rounded=1;arcSize=40;strokeWidth=2" vertex="1" parent="1">
          <mxGeometry x="541" y="109" width="93" height="49" as="geometry" />
        </mxCell>
        <mxCell id="4" value="Database connected?" style="rhombus;strokeWidth=2;whiteSpace=wrap;" vertex="1" parent="1">
          <mxGeometry x="488" y="208" width="200" height="200" as="geometry" />
        </mxCell>
        <mxCell id="5" value="Data loaded?" style="rhombus;strokeWidth=2;whiteSpace=wrap;" vertex="1" parent="1">
          <mxGeometry x="403" y="481" width="141" height="141" as="geometry" />
        </mxCell>
        <mxCell id="6" value="Render homepage" style="whiteSpace=wrap;strokeWidth=2;" vertex="1" parent="1">
          <mxGeometry x="379" y="695" width="189" height="49" as="geometry" />
        </mxCell>
        <mxCell id="7" value="User actions" style="rhombus;strokeWidth=2;whiteSpace=wrap;" vertex="1" parent="1">
          <mxGeometry x="187" y="817" width="137" height="137" as="geometry" />
        </mxCell>
        <mxCell id="8" value="Process registration" style="whiteSpace=wrap;strokeWidth=2;" vertex="1" parent="1">
          <mxGeometry x="25" y="1070" width="201" height="49" as="geometry" />
        </mxCell>
        <mxCell id="9" value="Send confirmation email" style="whiteSpace=wrap;strokeWidth=2;" vertex="1" parent="1">
          <mxGeometry x="8" y="1235" width="236" height="49" as="geometry" />
        </mxCell>
        <mxCell id="10" value="Process login" style="whiteSpace=wrap;strokeWidth=2;" vertex="1" parent="1">
          <mxGeometry x="382" y="1235" width="152" height="49" as="geometry" />
        </mxCell>
        <mxCell id="11" value="Process payment" style="whiteSpace=wrap;strokeWidth=2;" vertex="1" parent="1">
          <mxGeometry x="638" y="1070" width="180" height="49" as="geometry" />
        </mxCell>
        <mxCell id="12" value="Generate receipt" style="whiteSpace=wrap;strokeWidth=2;" vertex="1" parent="1">
          <mxGeometry x="637" y="1235" width="184" height="49" as="geometry" />
        </mxCell>
        <mxCell id="13" value="Send receipt email" style="whiteSpace=wrap;strokeWidth=2;" vertex="1" parent="1">
          <mxGeometry x="651" y="1334" width="195" height="49" as="geometry" />
        </mxCell>
        <mxCell id="14" value="User active?" style="rhombus;strokeWidth=2;whiteSpace=wrap;" vertex="1" parent="1">
          <mxGeometry x="387" y="1027" width="135" height="135" as="geometry" />
        </mxCell>
        <mxCell id="15" value="Display error message" style="whiteSpace=wrap;strokeWidth=2;" vertex="1" parent="1">
          <mxGeometry x="594" y="527" width="217" height="49" as="geometry" />
        </mxCell>
        <mxCell id="16" value="End" style="ellipse;aspect=fixed;strokeWidth=2;whiteSpace=wrap;" vertex="1" parent="1">
          <mxGeometry x="681" y="699" width="41" height="41" as="geometry" />
        </mxCell>
        <mxCell id="17" value="" style="curved=1;startArrow=none;endArrow=block;exitX=0.5;exitY=0.99;entryX=0.5;entryY=-0.01;" edge="1" parent="1" source="2" target="3">
          <mxGeometry relative="1" as="geometry">
            <Array as="points" />
          </mxGeometry>
        </mxCell>
        <mxCell id="18" value="" style="curved=1;startArrow=none;endArrow=block;exitX=0.5;exitY=0.99;entryX=0.5;entryY=0;" edge="1" parent="1" source="3" target="4">
          <mxGeometry relative="1" as="geometry">
            <Array as="points" />
          </mxGeometry>
        </mxCell>
        <mxCell id="19" value="Yes" style="curved=1;startArrow=none;endArrow=block;exitX=0.08;exitY=1;entryX=0.5;entryY=0;" edge="1" parent="1" source="4" target="5">
          <mxGeometry relative="1" as="geometry">
            <Array as="points">
              <mxPoint x="473" y="444" />
            </Array>
          </mxGeometry>
        </mxCell>
        <mxCell id="20" value="Yes" style="curved=1;startArrow=none;endArrow=block;exitX=0.5;exitY=1;entryX=0.5;entryY=-0.01;" edge="1" parent="1" source="5" target="6">
          <mxGeometry relative="1" as="geometry">
            <Array as="points" />
          </mxGeometry>
        </mxCell>
        <mxCell id="21" value="" style="curved=1;startArrow=none;endArrow=block;exitX=0;exitY=0.88;entryX=0.09;entryY=0;" edge="1" parent="1" source="6" target="7">
          <mxGeometry relative="1" as="geometry">
            <Array as="points">
              <mxPoint x="171" y="780" />
            </Array>
          </mxGeometry>
        </mxCell>
        <mxCell id="22" value="Register" style="curved=1;startArrow=none;endArrow=block;exitX=0;exitY=0.9;entryX=0.5;entryY=0;" edge="1" parent="1" source="7" target="8">
          <mxGeometry relative="1" as="geometry">
            <Array as="points">
              <mxPoint x="126" y="990" />
            </Array>
          </mxGeometry>
        </mxCell>
        <mxCell id="23" value="" style="curved=1;startArrow=none;endArrow=block;exitX=0.5;exitY=1;entryX=0.5;entryY=0.01;" edge="1" parent="1" source="8" target="9">
          <mxGeometry relative="1" as="geometry">
            <Array as="points" />
          </mxGeometry>
        </mxCell>
        <mxCell id="24" value="Login" style="curved=1;startArrow=none;endArrow=block;exitX=0.74;exitY=1;entryX=0.1;entryY=0.01;" edge="1" parent="1" source="7" target="10">
          <mxGeometry relative="1" as="geometry">
            <Array as="points">
              <mxPoint x="306" y="990" />
              <mxPoint x="306" y="1199" />
            </Array>
          </mxGeometry>
        </mxCell>
        <mxCell id="25" value="Browse" style="curved=1;startArrow=none;endArrow=block;exitX=0.32;exitY=0;entryX=0;entryY=0.95;" edge="1" parent="1" source="7" target="6">
          <mxGeometry relative="1" as="geometry">
            <Array as="points">
              <mxPoint x="218" y="780" />
            </Array>
          </mxGeometry>
        </mxCell>
        <mxCell id="26" value="" style="curved=1;startArrow=none;endArrow=block;exitX=0.76;exitY=0.01;entryX=0.68;entryY=0.99;" edge="1" parent="1" source="10" target="6">
          <mxGeometry relative="1" as="geometry">
            <Array as="points">
              <mxPoint x="557" y="1199" />
              <mxPoint x="557" y="780" />
            </Array>
          </mxGeometry>
        </mxCell>
        <mxCell id="27" value="Purchase" style="curved=1;startArrow=none;endArrow=block;exitX=1;exitY=0.61;entryX=0.5;entryY=0;" edge="1" parent="1" source="7" target="11">
          <mxGeometry relative="1" as="geometry">
            <Array as="points">
              <mxPoint x="729" y="990" />
            </Array>
          </mxGeometry>
        </mxCell>
        <mxCell id="28" value="" style="curved=1;startArrow=none;endArrow=block;exitX=0.5;exitY=1;entryX=0.5;entryY=0.01;" edge="1" parent="1" source="11" target="12">
          <mxGeometry relative="1" as="geometry">
            <Array as="points" />
          </mxGeometry>
        </mxCell>
        <mxCell id="29" value="" style="curved=1;startArrow=none;endArrow=block;exitX=0.5;exitY=1.01;entryX=0.45;entryY=0.01;" edge="1" parent="1" source="12" target="13">
          <mxGeometry relative="1" as="geometry">
            <Array as="points">
              <mxPoint x="729" y="1309" />
            </Array>
          </mxGeometry>
        </mxCell>
        <mxCell id="30" value="Logout" style="curved=1;startArrow=none;endArrow=block;exitX=1;exitY=0.15;entryX=0.36;entryY=0.99;" edge="1" parent="1" source="7" target="6">
          <mxGeometry relative="1" as="geometry">
            <Array as="points">
              <mxPoint x="406" y="780" />
            </Array>
          </mxGeometry>
        </mxCell>
        <mxCell id="31" value="" style="curved=1;startArrow=none;endArrow=block;exitX=0.77;exitY=0.01;entryX=1;entryY=0.8;" edge="1" parent="1" source="13" target="6">
          <mxGeometry relative="1" as="geometry">
            <Array as="points">
              <mxPoint x="855" y="1309" />
              <mxPoint x="855" y="780" />
            </Array>
          </mxGeometry>
        </mxCell>
        <mxCell id="32" value="Time out" style="curved=1;startArrow=none;endArrow=block;exitX=1;exitY=0.87;entryX=0.22;entryY=0;" edge="1" parent="1" source="7" target="14">
          <mxGeometry relative="1" as="geometry">
            <Array as="points">
              <mxPoint x="395" y="990" />
            </Array>
          </mxGeometry>
        </mxCell>
        <mxCell id="33" value="Yes" style="curved=1;startArrow=none;endArrow=block;exitX=0.66;exitY=0;entryX=0.53;entryY=0.99;" edge="1" parent="1" source="14" target="6">
          <mxGeometry relative="1" as="geometry">
            <Array as="points">
              <mxPoint x="489" y="990" />
              <mxPoint x="489" y="780" />
            </Array>
          </mxGeometry>
        </mxCell>
        <mxCell id="34" value="No" style="curved=1;startArrow=none;endArrow=block;exitX=0.5;exitY=1;entryX=0.49;entryY=0.01;" edge="1" parent="1" source="14" target="10">
          <mxGeometry relative="1" as="geometry">
            <Array as="points">
              <mxPoint x="454" y="1199" />
            </Array>
          </mxGeometry>
        </mxCell>
        <mxCell id="35" value="No" style="curved=1;startArrow=none;endArrow=block;exitX=0.92;exitY=1;entryX=0.5;entryY=-0.01;" edge="1" parent="1" source="4" target="15">
          <mxGeometry relative="1" as="geometry">
            <Array as="points">
              <mxPoint x="702" y="444" />
            </Array>
          </mxGeometry>
        </mxCell>
        <mxCell id="36" value="" style="curved=1;startArrow=none;endArrow=block;exitX=0.5;exitY=0.99;entryX=0.51;entryY=-0.01;" edge="1" parent="1" source="15" target="16">
          <mxGeometry relative="1" as="geometry">
            <Array as="points" />
          </mxGeometry>
        </mxCell>
      </root>
    </mxGraphModel>
  </diagram>
</mxfile>
